<?xml version="1.0" encoding="utf-8"?>
<!-- Generator: Adobe Illustrator 19.2.0, SVG Export Plug-In . SVG Version: 6.00 Build 0)  -->
<!DOCTYPE svg PUBLIC "-//W3C//DTD SVG 1.1//EN" "http://www.w3.org/Graphics/SVG/1.1/DTD/svg11.dtd">
<svg version="1.1" xmlns="http://www.w3.org/2000/svg" xmlns:xlink="http://www.w3.org/1999/xlink" x="0px" y="0px"
	 viewBox="0 0 338.7 372.6" enable-background="new 0 0 338.7 372.6" xml:space="preserve">
<g id="Layer_1" display="none">
	<line display="inline" fill="none" stroke="#FFDE17" stroke-miterlimit="10" x1="169.3" y1="186.3" x2="169.3" y2="-11.7"/>
	<line display="inline" fill="none" stroke="#FFDE17" stroke-miterlimit="10" x1="169.3" y1="186.3" x2="70.3" y2="14.8"/>
</g>
<g id="Layer_2">
	<path display="none" fill="#00AEEF" d="M167,182.2c0.7-0.4,1.5-0.6,2.3-0.6V0l-5,5.3V25L149.8,8.9l-7.4-1.1v7.9l22,24.3v17.7
		l-34.8-38.2l-7.4-1.4v8.1l42.2,46.3v3.2c-5.7-6.1-13-10.7-21.5-10c-8.8,0.7-16.6,8.1-17,17.1c-0.4,9.5,6.5,17.2,16,17.2
		c7.6,0,14.2-7,11.9-14.7c-2.4-8-10.6-6-14.1-0.2c2.5-2,6.6-3.7,8.5-0.1c1.9,3.5-1.5,6.5-4.9,6.6c-10.3,0.5-9.6-13.6-1-15.7
		c8.2-2.1,15.7,7,19.6,12.9c0.4,0.6,1.6,3.2,2.4,4.4v74.5l-23.5-40.8c2.1-2.5,3.3-5.7,3.3-9.2c0-7.9-6.4-14.3-14.3-14.3
		c-2.6,0-5.1,0.7-7.2,2l5,8.7c0.7-0.4,1.4-0.6,2.2-0.6c2.4,0,4.3,1.9,4.3,4.3c0,1.6-0.9,3-2.2,3.8L167,182.2z"/>
	<radialGradient id="SVGID_1_" cx="169.3376" cy="186.2857" r="178.0135" gradientUnits="userSpaceOnUse">
		<stop  offset="0" style="stop-color:#CCDDF2"/>
		<stop  offset="0.5" style="stop-color:#ACCAEA"/>
		<stop  offset="0.5745" style="stop-color:#A8C7E9"/>
		<stop  offset="1" style="stop-color:#90BBE4"/>
	</radialGradient>
	<path fill="url(#SVGID_1_)" d="M338.7,229.6l-7-4.1l-61.2,13.4l-2.8-1.6c8.2-1.9,15.7-5.9,19.4-13.6c3.8-8,1.2-18.4-6.3-23.3
		c-8.1-5.1-18.1-2.9-22.8,5.3c-3.8,6.6-1,15.8,6.8,17.6c8.2,1.9,10.5-6.2,7.2-12.1c0.5,3.2-0.1,7.5-4.2,7.4c-4-0.1-4.9-4.5-3.3-7.5
		c4.7-9.1,16.6-1.5,14.1,7c-2.3,8.1-13.9,10.1-21,10.5c-0.7,0-3.5-0.2-5-0.1L188,191.3l47.1,0c1.1,3.1,3.3,5.7,6.3,7.5
		c6.8,4,15.6,1.6,19.6-5.2c1.3-2.3,1.9-4.8,1.9-7.2v0c0-2.5-0.6-4.9-1.9-7.2c-4-6.8-12.7-9.2-19.6-5.2c-3,1.7-5.2,4.4-6.3,7.5
		l-47.1,0l64.5-37.2c1.5,0.1,4.3-0.1,5-0.1c7,0.4,18.7,2.4,21,10.5c2.4,8.6-9.4,16.1-14.1,7c-1.6-3-0.7-7.5,3.3-7.5
		c4.1-0.1,4.7,4.2,4.2,7.4c3.3-5.9,0.9-14-7.2-12.1c-7.8,1.8-10.6,11.1-6.8,17.6c4.7,8.2,14.8,10.4,22.8,5.3
		c7.6-4.8,10.1-15.3,6.3-23.3c-3.7-7.7-11.2-11.7-19.4-13.6l2.8-1.6l61.2,13.4l7-4.1l-4.9-5.7l-50.5-11l15.3-8.8l32,6.9l6.8-3.9
		l-4.7-5.9l-21.2-4.5l17.1-9.9l2-7l-7-1.7l-17.1,9.9l6.7-20.6l-2.7-7l-6.8,3.9l-10.1,31.2l-15.3,8.8L294,68.4l-2.5-7.1l-7,4.1
		l-19,59.7l-2.8,1.6c2.5-8,2.8-16.6-2.1-23.6c-5-7.3-15.4-10.3-23.3-6.2c-8.5,4.4-11.6,14.2-6.9,22.4c3.8,6.6,13.2,8.8,18.7,2.9
		c5.7-6.1-0.1-12.2-6.9-12.3c3,1.2,6.4,3.9,4.3,7.4c-2.1,3.4-6.3,2-8.2-0.9c-5.6-8.6,6.9-15.1,13.1-8.7c5.9,6.1,1.7,17.1-1.4,23.4
		c-0.3,0.7-1.9,3-2.6,4.3L183,172.6l23.5-40.8c3.2,0.6,6.6,0,9.6-1.7c6.8-4,9.2-12.7,5.2-19.6c-1.3-2.3-3.2-4.1-5.3-5.3l0,0
		c-2.1-1.2-4.6-2-7.2-2c-7.9,0-14.3,6.4-14.3,14.3c0,3.5,1.3,6.7,3.3,9.2l-23.5,40.8V93.1c0.9-1.2,2-3.8,2.4-4.4
		c3.9-5.9,11.4-15,19.6-12.9c8.6,2.2,9.3,16.2-1,15.7c-3.4-0.2-6.8-3.1-4.9-6.6c2-3.6,6-2,8.5,0.1c-3.4-5.8-11.6-7.8-14.1,0.2
		c-2.3,7.7,4.3,14.7,11.9,14.7c9.5,0,16.4-7.6,16-17.2c-0.4-9-8.2-16.4-17-17.1c-8.5-0.7-15.8,3.9-21.5,10v-3.2l42.2-46.3V18
		l-7.4,1.4l-34.8,38.2V39.9l22-24.3V7.8l-7.4,1.1L174.3,25V5.3l-5-5.3l-5,5.3V25L149.8,8.9l-7.4-1.1v7.9l22,24.3v17.7l-34.8-38.2
		l-7.4-1.4v8.1l42.2,46.3v3.2c-5.7-6.1-13-10.7-21.5-10c-8.8,0.7-16.6,8.1-17,17.1c-0.4,9.5,6.5,17.2,16,17.2
		c7.6,0,14.2-7,11.9-14.7c-2.4-8-10.6-6-14.1-0.2c2.5-2,6.6-3.7,8.5-0.1c1.9,3.5-1.5,6.5-4.9,6.6c-10.3,0.5-9.6-13.6-1-15.7
		c8.2-2.1,15.7,7,19.6,12.9c0.4,0.6,1.6,3.2,2.4,4.4v74.5l-23.5-40.8c2.1-2.5,3.3-5.7,3.3-9.2c0-7.9-6.4-14.3-14.3-14.3
		c-2.6,0-5.1,0.7-7.2,2l0,0c-2.1,1.2-4,3-5.3,5.3c-4,6.8-1.6,15.6,5.2,19.6c3,1.7,6.4,2.3,9.6,1.7l23.5,40.8l-64.5-37.2
		c-0.6-1.4-2.3-3.7-2.6-4.3c-3.1-6.3-7.3-17.3-1.4-23.4c6.2-6.4,18.7,0.1,13.1,8.7c-1.8,2.9-6.1,4.3-8.2,0.9
		c-2.1-3.5,1.3-6.2,4.3-7.4c-6.8,0.1-12.6,6.2-6.9,12.3c5.5,5.8,14.9,3.6,18.7-2.9c4.7-8.2,1.6-18-6.9-22.4
		c-8-4.1-18.3-1.1-23.3,6.2c-4.8,7-4.5,15.6-2.1,23.6l-2.8-1.6l-19-59.7l-7-4.1l-2.5,7.1l15.7,49.2l-15.3-8.8L35,77.6l-6.8-3.9
		l-2.7,7l6.7,20.6l-17.1-9.9l-7,1.7l2,7l17.1,9.9l-21.2,4.5l-4.7,5.9l6.8,3.9l32-6.9l15.3,8.8l-50.5,11L0,143l7,4.1l61.2-13.4
		l2.8,1.6c-8.2,1.9-15.7,5.9-19.4,13.6c-3.8,8-1.2,18.4,6.3,23.3c8.1,5.1,18.1,2.9,22.8-5.3c3.8-6.6,1-15.8-6.8-17.6
		c-8.2-1.9-10.5,6.2-7.2,12.1c-0.5-3.2,0.1-7.5,4.2-7.4c4,0.1,4.9,4.5,3.3,7.5c-4.7,9.1-16.6,1.5-14.1-7c2.3-8.1,13.9-10.1,21-10.5
		c0.7,0,3.5,0.2,5,0.1l64.5,37.2l-47.1,0c-1.1-3.1-3.3-5.7-6.3-7.5c-6.8-4-15.6-1.6-19.6,5.2c-1.3,2.3-1.9,4.8-1.9,7.2v0
		c0,2.5,0.6,4.9,1.9,7.2c4,6.8,12.7,9.2,19.6,5.2c3-1.7,5.2-4.4,6.3-7.5l47.1,0l-64.5,37.2c-1.5-0.1-4.3,0.1-5,0.1
		c-7-0.4-18.7-2.4-21-10.5c-2.4-8.6,9.4-16.1,14.1-7c1.6,3,0.7,7.5-3.3,7.5c-4.1,0.1-4.7-4.2-4.2-7.4c-3.3,5.9-0.9,14,7.2,12.1
		c7.8-1.8,10.6-11.1,6.8-17.6c-4.7-8.2-14.8-10.4-22.8-5.3c-7.6,4.8-10.1,15.3-6.3,23.3c3.7,7.7,11.2,11.7,19.4,13.6l-2.8,1.6
		L7,225.5l-7,4.1l4.9,5.7l50.5,11l-15.3,8.8l-32-6.9l-6.8,3.9l4.7,5.9l21.2,4.5l-17.1,9.9l-2,7l7,1.7l17.1-9.9l-6.7,20.6l2.7,7
		L35,295l10.1-31.2l15.3-8.8l-15.7,49.2l2.5,7.1l7-4.1l19-59.7l2.8-1.6c-2.5,8-2.8,16.6,2.1,23.6c5,7.3,15.4,10.3,23.3,6.2
		c8.5-4.4,11.6-14.2,6.9-22.4c-3.8-6.6-13.2-8.8-18.7-2.9c-5.7,6.1,0.1,12.2,6.9,12.3c-3-1.2-6.4-3.9-4.3-7.4c2.1-3.4,6.3-2,8.2,0.9
		c5.6,8.6-6.9,15.1-13.1,8.7c-5.9-6.1-1.7-17.1,1.4-23.4c0.3-0.7,1.9-3,2.6-4.3l64.5-37.2l-23.5,40.8c-3.2-0.6-6.6,0-9.6,1.7
		c-6.8,4-9.2,12.7-5.2,19.6c1.3,2.3,3.2,4.1,5.3,5.3l0,0c2.1,1.2,4.6,2,7.2,2c7.9,0,14.3-6.4,14.3-14.3c0-3.5-1.3-6.7-3.3-9.2
		l23.5-40.8v74.5c-0.9,1.2-2,3.8-2.4,4.4c-3.9,5.9-11.4,15-19.6,12.9c-8.6-2.2-9.3-16.2,1-15.7c3.4,0.2,6.8,3.1,4.9,6.6
		c-2,3.6-6,2-8.5-0.1c3.4,5.8,11.6,7.8,14.1-0.2c2.3-7.7-4.3-14.7-11.9-14.7c-9.5,0-16.4,7.6-16,17.2c0.4,9,8.2,16.4,17,17.1
		c8.5,0.7,15.8-3.9,21.5-10v3.2l-42.2,46.3v8.1l7.4-1.4l34.8-38.2v17.7l-22,24.3v7.9l7.4-1.1l14.5-16.1v19.8l5,5.3l5-5.3v-19.8
		l14.5,16.1l7.4,1.1V357l-22-24.3V315l34.8,38.2l7.4,1.4v-8.1l-42.2-46.3v-3.2c5.7,6.1,13,10.7,21.5,10c8.8-0.7,16.6-8.1,17-17.1
		c0.4-9.5-6.5-17.2-16-17.2c-7.6,0-14.2,7-11.9,14.7c2.4,8,10.6,6,14.1,0.2c-2.5,2-6.6,3.7-8.5,0.1c-1.9-3.5,1.5-6.5,4.9-6.6
		c10.3-0.5,9.6,13.6,1,15.7c-8.2,2.1-15.7-7-19.6-12.9c-0.4-0.6-1.6-3.2-2.4-4.4v-74.5l23.5,40.8c-2.1,2.5-3.3,5.7-3.3,9.2
		c0,7.9,6.4,14.3,14.3,14.3c2.6,0,5.1-0.7,7.2-2l0,0c2.1-1.2,4-3,5.3-5.3c4-6.8,1.6-15.6-5.2-19.6c-3-1.7-6.4-2.3-9.6-1.7L183,199.9
		l64.5,37.2c0.6,1.4,2.3,3.7,2.6,4.3c3.1,6.3,7.3,17.3,1.4,23.4c-6.2,6.4-18.7-0.1-13.1-8.7c1.8-2.9,6.1-4.3,8.2-0.9
		c2.1,3.5-1.3,6.2-4.3,7.4c6.8-0.1,12.6-6.2,6.9-12.3c-5.5-5.8-14.9-3.6-18.7,2.9c-4.7,8.2-1.6,18,6.9,22.4c8,4.1,18.3,1.1,23.3-6.2
		c4.8-7,4.5-15.6,2.1-23.6l2.8,1.6l19,59.7l7,4.1l2.5-7.1L278.3,255l15.3,8.8l10.1,31.2l6.8,3.9l2.7-7l-6.7-20.6l17.1,9.9l7-1.7
		l-2-7l-17.1-9.9l21.2-4.5l4.7-5.9l-6.8-3.9l-32,6.9l-15.3-8.8l50.5-11L338.7,229.6z M131.8,121.5c-1.3,0.7-3,0.8-4.3,0
		c-2.1-1.2-2.8-3.9-1.6-5.9c0.4-0.7,1-1.3,1.7-1.6c0.7-0.4,1.4-0.6,2.2-0.6c2.4,0,4.3,1.9,4.3,4.3c0,1.6-0.9,3-2.2,3.8L131.8,121.5z
		 M94.5,186.4c0,1.5-0.8,3-2.2,3.8c-2.1,1.2-4.7,0.5-5.9-1.6c-0.4-0.7-0.6-1.5-0.6-2.2c0-0.8,0.2-1.5,0.6-2.2
		c1.2-2.1,3.9-2.8,5.9-1.6c1.4,0.8,2.2,2.3,2.2,3.8V186.4z M132,251.2c1.3,0.8,2.2,2.2,2.2,3.8c0,2.4-1.9,4.3-4.3,4.3
		c-0.8,0-1.6-0.2-2.2-0.6c-0.7-0.4-1.2-0.9-1.7-1.6c-1.2-2.1-0.5-4.7,1.6-5.9c1.4-0.8,3-0.7,4.3,0L132,251.2z M206.8,251.1
		c1.3-0.7,3-0.8,4.3,0c2.1,1.2,2.8,3.9,1.6,5.9c-0.4,0.7-1,1.3-1.7,1.6c-0.7,0.4-1.4,0.6-2.2,0.6c-2.4,0-4.3-1.9-4.3-4.3
		c0-1.6,0.9-3,2.2-3.8L206.8,251.1z M244.2,186.2c0-1.5,0.8-3,2.2-3.8c2.1-1.2,4.7-0.5,5.9,1.6c0.4,0.7,0.6,1.5,0.6,2.2
		c0,0.8-0.2,1.5-0.6,2.2c-1.2,2.1-3.9,2.8-5.9,1.6c-1.4-0.8-2.2-2.3-2.2-3.8V186.2z M206.7,121.4c-1.3-0.8-2.2-2.2-2.2-3.8
		c0-2.4,1.9-4.3,4.3-4.3c0.8,0,1.6,0.2,2.2,0.6c0.7,0.4,1.2,0.9,1.7,1.6c1.2,2.1,0.5,4.7-1.6,5.9c-1.4,0.8-3,0.7-4.3,0L206.7,121.4z
		 M171.7,182.2c0.7,0.4,1.3,1,1.7,1.7c0.4,0.7,0.6,1.5,0.6,2.3v0c0,0.8-0.2,1.6-0.6,2.3c-0.4,0.7-1,1.3-1.7,1.7l0,0
		c-0.7,0.4-1.5,0.6-2.3,0.6s-1.6-0.2-2.3-0.6l0,0c-0.7-0.4-1.3-1-1.7-1.7c-0.4-0.7-0.6-1.5-0.6-2.3v0c0-0.8,0.2-1.6,0.6-2.3
		c0.4-0.7,1-1.3,1.7-1.7l0,0c0.7-0.4,1.5-0.6,2.3-0.6S171,181.8,171.7,182.2L171.7,182.2z"/>
</g>
</svg>
